<svg xmlns="http://www.w3.org/2000/svg" viewBox="0 0 64 64" fill="none" role="img" aria-label="Immojudis">
  <rect x="6" y="6" width="52" height="52" rx="15" fill="#09090b"/>
  <g transform="translate(32 32) scale(0.78) translate(-32 -32)">
    <g stroke="#f8efe1" stroke-width="4.4" stroke-linecap="round" stroke-linejoin="round">
      <path d="M11.5 26.5 L32 10.5 L52.5 26.5"/>
      <path d="M46 21.4 L46 13.5"/>
      <path d="M16 30 V40 C16 49 22 54.2 32 56"/>
      <path d="M48 30 V40 C48 49 42 54.2 32 56"/>
    </g>
    <g transform="translate(33 28) scale(0.93) translate(-33 -28)">
      <g transform="rotate(34 33 27)"><rect x="30.5" y="27" width="5" height="23" rx="2.5" fill="#f2c487"/></g>
      <g transform="rotate(-34 33 27)">
        <rect x="21.5" y="21.5" width="23" height="11" rx="5.5" fill="#f2c487"/>
        <line x1="26" y1="20.5" x2="26" y2="33.5" stroke="#09090b" stroke-width="1.6" stroke-linecap="round"/>
        <line x1="40" y1="20.5" x2="40" y2="33.5" stroke="#09090b" stroke-width="1.6" stroke-linecap="round"/>
      </g>
    </g>
  </g>
</svg>
